<?xml version="1.0"?>
<svg width="802" height="175" xmlns="http://www.w3.org/2000/svg" xmlns:svg="http://www.w3.org/2000/svg">
 <!-- Created with Method Draw - http://github.com/duopixel/Method-Draw/ -->
 <title>MVC Pipeline</title>
 <g>
  <title>background</title>
 </g>
 <g>
  <g id="svg_5">
   <title transform="translate(29.900390625,-77.5986328125) translate(0,-0.7119140625) translate(0,-0.7119140625) translate(0,-0.7119140625) translate(0,-0.7119140625) translate(0,-0.7119140625) translate(0,-0.7119140625) translate(0,-0.7119140625) translate(0,-0.7119140625) translate(0,-0.7119140625) translate(0,-0.7119140625) translate(0,-0.7119140625) translate(0,-0.7119140625) translate(0,-0.7119140625) translate(0,-0.7119140625) translate(0,-0.7119140625) translate(0,-0.7119140625) translate(0,-0.7119140625) translate(0,4) translate(0,-4) translate(0,-4) translate(0,4) translate(0,4) translate(0,4) translate(0,4) translate(0,4) translate(0,4) translate(0,4) translate(0,4) translate(0,4) translate(0,4) translate(0,4) translate(0,4) translate(0,4) translate(0,4) translate(0,4) translate(0,4) translate(0,10) translate(0,10) translate(0,10) translate(0,1) translate(0,1) translate(0,1) translate(0,1) translate(0,1) translate(0,1) translate(0,1) translate(0,1) translate(0,1) translate(0,1) translate(0,1) translate(0,1) translate(0,1) translate(0,1) translate(0,1) translate(0,1) translate(0,1) translate(0,1) translate(0,1) translate(0,1) translate(0,1) translate(0,1) translate(0,1) translate(0,1) translate(0,1) translate(0,1) translate(0,1) translate(0,1) translate(0,1) translate(0,1) translate(0,1) translate(0,1) translate(0,1) translate(0,1) translate(0,1) translate(0,1) translate(0,1) ">Pipeline</title>
   <rect stroke="#dfcc74" id="svg_4" height="50" width="702.90319" y="75.798828" x="80.900391" stroke-opacity="null" stroke-width="4" fill="#dfcc74"/>
   <ellipse stroke="#dfcc74" ry="24.64277" rx="12.38091" id="svg_2" cy="100.798828" cx="78.111921" stroke-opacity="null" stroke-width="4" fill="#d7cdcc"/>
   <ellipse stroke="#dfcc74" ry="24.64277" rx="12.38091" id="svg_3" cy="100.798828" cx="785.093941" stroke-opacity="null" stroke-width="4" fill="#dfcc74"/>
  </g>
  <text xml:space="preserve" text-anchor="start" font-family="Calibri, Arial, sans-serif" font-size="14" id="svg_6" y="90.380688" x="99.751911" stroke-opacity="null" stroke-width="0" stroke="#d7cdcc" fill="#d7cdcc">Server</text>
  <text xml:space="preserve" text-anchor="start" font-family="Calibri, Arial, sans-serif" font-size="14" id="svg_7" y="105.689658" x="99.751911" stroke-opacity="null" stroke-width="0" stroke="#d7cdcc" fill="#d7cdcc">Receives</text>
  <text xml:space="preserve" text-anchor="start" font-family="Calibri, Arial, sans-serif" font-size="14" id="svg_8" y="120.231438" x="99.751911" stroke-opacity="null" stroke-width="0" stroke="#d7cdcc" fill="#d7cdcc">Request</text>
  <g id="svg_9">
   <path transform="rotate(180 752.66162109375,100.798828125) " id="svg_12" d="m726.325711,75.551758l65.83971,0c-7.27246,0 -13.16794,11.3035 -13.16794,25.24707c0,13.94357 5.89548,25.24707 13.16794,25.24707l-65.83971,0l0,0c-7.27246,0 -13.16794,-11.3035 -13.16794,-25.24707c0,-13.94357 5.89548,-25.24707 13.16794,-25.24707z" stroke-width="4" fill="#75485e" stroke="#75485e"/>
   <text xml:space="preserve" text-anchor="start" font-family="Calibri, sans-serif" font-size="14" id="svg_13" y="90.380688" x="727.346751" stroke-opacity="null" stroke-width="0" stroke="#d7cdcc" fill="#d7cdcc">Server</text>
   <text xml:space="preserve" text-anchor="start" font-family="Calibri, Arial, sans-serif" font-size="14" id="svg_14" y="105.689658" x="727.346751" stroke-opacity="null" stroke-width="0" stroke="#d7cdcc" fill="#d7cdcc">Returns</text>
   <text xml:space="preserve" text-anchor="start" font-family="Calibri, Arial, sans-serif" font-size="14" id="svg_15" y="120.231438" x="727.346751" stroke-opacity="null" stroke-width="0" stroke="#d7cdcc" fill="#d7cdcc">Response</text>
  </g>
  <g id="svg_29">
   <path fill="#000000" stroke="#75485e" stroke-width="0" stroke-opacity="null" d="m627.456561,60.525218c-12.75658,0 -23.70609,7.3864 -29.06568,18.04971c-2.14059,-1.33433 -4.50166,-2.14226 -7.02148,-2.14226c-7.62001,0 -13.96095,6.84436 -15.9208,16.13535c-3.34521,-1.47632 -7.23477,-2.37016 -11.3895,-2.37016c-12.46418,0 -22.57488,7.61436 -22.57488,17.00138c0,8.47337 8.29212,15.43927 19.06414,16.72789c-0.48279,0.9146 -0.85727,1.82031 -0.85727,2.78038c0,8.98757 22.05319,16.31767 49.23202,16.31767c27.17883,0 49.23205,-7.33011 49.23203,-16.31767c0,-0.60471 -0.33616,-1.14437 -0.5307,-1.73204c1.19044,0.33054 2.36914,0.6837 3.67404,0.6837c7.27075,0.00003 13.18569,-5.51602 13.18569,-12.30662c0,-6.79061 -5.91494,-12.30663 -13.18569,-12.30663c-0.89102,0 -1.64865,0.34364 -2.49018,0.50139c0.73583,-2.71523 1.22467,-5.48576 1.22467,-8.43232c0,-17.97511 -14.5726,-32.58976 -32.5764,-32.58976l-0.00001,-0.00001z" id="svg_27"/>
   <text fill="#ffffff" stroke="#75485e" stroke-width="0" stroke-opacity="null" x="594.400131" y="106.541018" id="svg_28" font-size="14" font-family="Calibri, Arial, sans-serif" text-anchor="start" xml:space="preserve">Magic</text>
  </g>
  <g id="svg_11">
   <path fill="#000000" stroke="#75485e" stroke-width="0" d="m286.456711,60.525218c-12.75658,0 -23.70609,7.3864 -29.06568,18.04971c-2.14059,-1.33433 -4.50166,-2.14226 -7.02148,-2.14226c-7.62001,0 -13.96095,6.84436 -15.9208,16.13535c-3.34521,-1.47632 -7.23477,-2.37016 -11.3895,-2.37016c-12.46418,0 -22.57488,7.61436 -22.57488,17.00138c0,8.47337 8.29211,15.43927 19.06414,16.72789c-0.48279,0.9146 -0.85727,1.82031 -0.85727,2.78038c0,8.98757 22.05319,16.31767 49.23202,16.31767c27.17883,0 49.23205,-7.33011 49.23202,-16.31767c0,-0.60471 -0.33615,-1.14437 -0.53069,-1.73204c1.19044,0.33054 2.36914,0.6837 3.67404,0.6837c7.27075,0.00003 13.18569,-5.51602 13.18569,-12.30663c0,-6.79061 -5.91494,-12.30662 -13.18569,-12.30662c-0.89101,0 -1.64865,0.34364 -2.49018,0.50139c0.73583,-2.71523 1.22467,-5.48576 1.22467,-8.43232c0,-17.97512 -14.5726,-32.58976 -32.5764,-32.58976l-0.00001,-0.00001z" id="svg_24"/>
   <text fill="#ffffff" stroke="#75485e" stroke-width="0" x="253.400281" y="106.541018" id="svg_25" font-size="14" font-family="Calibri, Arial, sans-serif" text-anchor="start" xml:space="preserve">Magic</text>
  </g>
  <g id="svg_44">
   <path id="svg_45" fill="#000000" stroke="#75485e" stroke-width="0" stroke-opacity="null" d="m627.456561,60.525218c-12.75658,0 -23.70609,7.3864 -29.06568,18.04971c-2.14059,-1.33433 -4.50166,-2.14226 -7.02148,-2.14226c-7.62001,0 -13.96095,6.84436 -15.9208,16.13535c-3.34521,-1.47632 -7.23477,-2.37016 -11.3895,-2.37016c-12.46418,0 -22.57488,7.61436 -22.57488,17.00138c0,8.47337 8.29212,15.43927 19.06414,16.72789c-0.48279,0.9146 -0.85727,1.82031 -0.85727,2.78038c0,8.98757 22.05319,16.31767 49.23202,16.31767c27.17883,0 49.23205,-7.33011 49.23203,-16.31767c0,-0.60471 -0.33616,-1.14437 -0.5307,-1.73204c1.19044,0.33054 2.36914,0.6837 3.67404,0.6837c7.27075,0.00003 13.18569,-5.51602 13.18569,-12.30662c0,-6.79061 -5.91494,-12.30663 -13.18569,-12.30663c-0.89102,0 -1.64865,0.34364 -2.49018,0.50139c0.73583,-2.71523 1.22467,-5.48576 1.22467,-8.43232c0,-17.97511 -14.5726,-32.58976 -32.5764,-32.58976l-0.00001,-0.00001z"/>
   <text id="svg_46" fill="#ffffff" stroke="#75485e" stroke-width="0" stroke-opacity="null" x="594.400131" y="106.541018" font-size="14" font-family="Calibri, Arial, sans-serif" text-anchor="start" xml:space="preserve">Magic</text>
  </g>
  <g id="svg_47">
   <path id="svg_48" fill="#000000" stroke="#75485e" stroke-width="0" d="m286.456711,60.525218c-12.75658,0 -23.70609,7.3864 -29.06568,18.04971c-2.14059,-1.33433 -4.50166,-2.14226 -7.02148,-2.14226c-7.62001,0 -13.96095,6.84436 -15.9208,16.13535c-3.34521,-1.47632 -7.23477,-2.37016 -11.3895,-2.37016c-12.46418,0 -22.57488,7.61436 -22.57488,17.00138c0,8.47337 8.29211,15.43927 19.06414,16.72789c-0.48279,0.9146 -0.85727,1.82031 -0.85727,2.78038c0,8.98757 22.05319,16.31767 49.23202,16.31767c27.17883,0 49.23205,-7.33011 49.23202,-16.31767c0,-0.60471 -0.33615,-1.14437 -0.53069,-1.73204c1.19044,0.33054 2.36914,0.6837 3.67404,0.6837c7.27075,0.00003 13.18569,-5.51602 13.18569,-12.30663c0,-6.79061 -5.91494,-12.30662 -13.18569,-12.30662c-0.89101,0 -1.64865,0.34364 -2.49018,0.50139c0.73583,-2.71523 1.22467,-5.48576 1.22467,-8.43232c0,-17.97512 -14.5726,-32.58976 -32.5764,-32.58976l-0.00001,-0.00001z"/>
   <text id="svg_49" fill="#ffffff" stroke="#75485e" stroke-width="0" x="253.400281" y="106.541018" font-size="14" font-family="Calibri, Arial, sans-serif" text-anchor="start" xml:space="preserve">Magic</text>
  </g>
  <g id="svg_55">
   <path id="svg_56" transform="rotate(180 122.40421295166016,100.79882812500001) " d="m96.068331,75.650768l65.83971,0c-7.27246,0 -13.16794,11.25917 -13.16794,25.14806c0,13.88889 5.89548,25.14806 13.16794,25.14806l-65.83971,0l0,0c-7.27246,0 -13.16794,-11.25917 -13.16794,-25.14806c0,-13.88889 5.89548,-25.14806 13.16794,-25.14806z" stroke-width="4" fill="#75485e" stroke="#75485e"/>
   <text id="svg_57" xml:space="preserve" text-anchor="start" font-family="Calibri, Arial, sans-serif" font-size="14" y="90.380688" x="99.751911" stroke-opacity="null" stroke-width="0" stroke="#d7cdcc" fill="#d7cdcc">Server</text>
   <text id="svg_58" xml:space="preserve" text-anchor="start" font-family="Calibri, Arial, sans-serif" font-size="14" y="105.689658" x="99.751911" stroke-opacity="null" stroke-width="0" stroke="#d7cdcc" fill="#d7cdcc">Receives</text>
   <text id="svg_59" xml:space="preserve" text-anchor="start" font-family="Calibri, Arial, sans-serif" font-size="14" y="120.231438" x="99.751911" stroke-opacity="null" stroke-width="0" stroke="#d7cdcc" fill="#d7cdcc">Request</text>
  </g>
  <g id="svg_60">
   <path id="svg_61" transform="rotate(180 752.66162109375,100.798828125) " d="m726.325711,75.551758l65.83971,0c-7.27246,0 -13.16794,11.3035 -13.16794,25.24707c0,13.94357 5.89548,25.24707 13.16794,25.24707l-65.83971,0l0,0c-7.27246,0 -13.16794,-11.3035 -13.16794,-25.24707c0,-13.94357 5.89548,-25.24707 13.16794,-25.24707z" stroke-width="4" fill="#75485e" stroke="#75485e"/>
   <text id="svg_62" xml:space="preserve" text-anchor="start" font-family="Calibri, sans-serif" font-size="14" y="90.380688" x="727.346751" stroke-opacity="null" stroke-width="0" stroke="#d7cdcc" fill="#d7cdcc">Server</text>
   <text id="svg_63" xml:space="preserve" text-anchor="start" font-family="Calibri, Arial, sans-serif" font-size="14" y="105.689658" x="727.346751" stroke-opacity="null" stroke-width="0" stroke="#d7cdcc" fill="#d7cdcc">Returns</text>
   <text id="svg_64" xml:space="preserve" text-anchor="start" font-family="Calibri, Arial, sans-serif" font-size="14" y="120.231438" x="727.346751" stroke-opacity="null" stroke-width="0" stroke="#d7cdcc" fill="#d7cdcc">Response</text>
  </g>
  <g id="svg_65">
   <path id="svg_66" stroke="#75485e" fill="#75485e" stroke-width="4" d="m389.568191,75.650768l65.83971,0c-7.27246,0 -13.16794,11.25917 -13.16794,25.14806c0,13.88889 5.89548,25.14806 13.16794,25.14806l-65.83971,0l0,0c-7.27246,0 -13.16794,-11.25917 -13.16794,-25.14806c0,-13.88889 5.89548,-25.14806 13.16794,-25.14806z" transform="rotate(180 415.904052734375,100.798828125) "/>
   <path id="svg_67" stroke="#75485e" fill="#75485e" stroke-width="4" d="m424.068181,75.650768l65.83971,0c-7.27246,0 -13.16794,11.25917 -13.16794,25.14806c0,13.88889 5.89548,25.14806 13.16794,25.14806l-65.83971,0l0,0c-7.27246,0 -13.16794,-11.25917 -13.16794,-25.14806c0,-13.88889 5.89548,-25.14806 13.16794,-25.14806z" transform="rotate(180 450.4042053222656,100.798828125) "/>
   <text id="svg_68" fill="#d7cdcc" stroke="#d7cdcc" stroke-width="0" stroke-opacity="null" x="390.751771" y="98.138498" font-size="14" font-family="Calibri, Arial, sans-serif" text-anchor="start" xml:space="preserve">PatronController</text>
   <text id="svg_69" fill="#d7cdcc" stroke="#d7cdcc" stroke-width="0" stroke-opacity="null" x="390.751771" y="112.947468" font-size="14" font-family="Calibri, Arial, sans-serif" text-anchor="start" xml:space="preserve">CreatePatron</text>
  </g>
  <g id="svg_70">
   <path id="svg_71" fill="#000000" stroke="#75485e" stroke-width="0" stroke-opacity="null" d="m627.456561,60.525218c-12.75658,0 -23.70609,7.3864 -29.06568,18.04971c-2.14059,-1.33433 -4.50166,-2.14226 -7.02148,-2.14226c-7.62001,0 -13.96095,6.84436 -15.9208,16.13535c-3.34521,-1.47632 -7.23477,-2.37016 -11.3895,-2.37016c-12.46418,0 -22.57488,7.61436 -22.57488,17.00138c0,8.47337 8.29212,15.43927 19.06414,16.72789c-0.48279,0.9146 -0.85727,1.82031 -0.85727,2.78038c0,8.98757 22.05319,16.31767 49.23202,16.31767c27.17883,0 49.23205,-7.33011 49.23203,-16.31767c0,-0.60471 -0.33616,-1.14437 -0.5307,-1.73204c1.19044,0.33054 2.36914,0.6837 3.67404,0.6837c7.27075,0.00003 13.18569,-5.51602 13.18569,-12.30662c0,-6.79061 -5.91494,-12.30663 -13.18569,-12.30663c-0.89102,0 -1.64865,0.34364 -2.49018,0.50139c0.73583,-2.71523 1.22467,-5.48576 1.22467,-8.43232c0,-17.97511 -14.5726,-32.58976 -32.5764,-32.58976l-0.00001,-0.00001z"/>
   <text id="svg_72" fill="#ffffff" stroke="#75485e" stroke-width="0" stroke-opacity="null" x="594.400131" y="106.541018" font-size="14" font-family="Calibri, Arial, sans-serif" text-anchor="start" xml:space="preserve">Magic</text>
  </g>
  <g id="svg_73">
   <path id="svg_74" fill="#000000" stroke="#75485e" stroke-width="0" d="m286.456711,60.525218c-12.75658,0 -23.70609,7.3864 -29.06568,18.04971c-2.14059,-1.33433 -4.50166,-2.14226 -7.02148,-2.14226c-7.62001,0 -13.96095,6.84436 -15.9208,16.13535c-3.34521,-1.47632 -7.23477,-2.37016 -11.3895,-2.37016c-12.46418,0 -22.57488,7.61436 -22.57488,17.00138c0,8.47337 8.29211,15.43927 19.06414,16.72789c-0.48279,0.9146 -0.85727,1.82031 -0.85727,2.78038c0,8.98757 22.05319,16.31767 49.23202,16.31767c27.17883,0 49.23205,-7.33011 49.23202,-16.31767c0,-0.60471 -0.33615,-1.14437 -0.53069,-1.73204c1.19044,0.33054 2.36914,0.6837 3.67404,0.6837c7.27075,0.00003 13.18569,-5.51602 13.18569,-12.30663c0,-6.79061 -5.91494,-12.30662 -13.18569,-12.30662c-0.89101,0 -1.64865,0.34364 -2.49018,0.50139c0.73583,-2.71523 1.22467,-5.48576 1.22467,-8.43232c0,-17.97512 -14.5726,-32.58976 -32.5764,-32.58976l-0.00001,-0.00001z"/>
   <text id="svg_75" fill="#ffffff" stroke="#75485e" stroke-width="0" x="253.400281" y="106.541018" font-size="14" font-family="Calibri, Arial, sans-serif" text-anchor="start" xml:space="preserve">Magic</text>
  </g>
  <line fill="none" stroke="#75485e" stroke-width="4" stroke-dasharray="null" stroke-linejoin="null" stroke-linecap="null" x1="267.532246" y1="67.030279" x2="267.532246" y2="143.762302" id="svg_10" opacity="0.7"/>
  <g stroke="null" id="svg_50">
   <title transform="translate(29.900390625,-77.5986328125) translate(0,-0.7119140625) translate(0,-0.7119140625) translate(0,-0.7119140625) translate(0,-0.7119140625) translate(0,-0.7119140625) translate(0,-0.7119140625) translate(0,-0.7119140625) translate(0,-0.7119140625) translate(0,-0.7119140625) translate(0,-0.7119140625) translate(0,-0.7119140625) translate(0,-0.7119140625) translate(0,-0.7119140625) translate(0,-0.7119140625) translate(0,-0.7119140625) translate(0,-0.7119140625) translate(0,-0.7119140625) translate(0,4) translate(0,-4) translate(0,-4) translate(0,4) translate(0,4) translate(0,4) translate(0,4) translate(0,4) translate(0,4) translate(0,4) translate(0,4) translate(0,4) translate(0,4) translate(0,4) translate(0,4) translate(0,4) translate(0,4) translate(0,4) translate(0,4) translate(0,10) translate(0,10) translate(0,10) translate(0,1) translate(0,1) translate(0,1) translate(0,1) translate(0,1) translate(0,1) translate(0,1) translate(0,1) translate(0,1) translate(0,1) translate(0,1) translate(0,1) translate(0,1) translate(0,1) translate(0,1) translate(0,1) translate(0,1) translate(0,1) translate(0,1) translate(0,1) translate(0,1) translate(0,1) translate(0,1) translate(0,1) translate(0,1) translate(0,1) translate(0,1) translate(0,1) translate(0,1) translate(0,1) translate(0,1) translate(0,1) translate(0,1) translate(0,1) translate(0,1) translate(0,1) translate(0,1) ">Pipeline</title>
   <rect stroke="#dfcc74" id="svg_52" height="10.440417" width="129.984697" y="156.242191" x="179.278384" stroke-opacity="null" stroke-width="4" fill="#dfcc74"/>
   <ellipse stroke="#dfcc74" id="svg_53" ry="5.145616" rx="2.289546" cy="161.462399" cx="178.762725" stroke-opacity="null" stroke-width="4" fill="#d7cdcc"/>
   <ellipse stroke="#dfcc74" id="svg_54" ry="5.145616" rx="2.289546" cy="161.462399" cx="309.501702" stroke-opacity="null" stroke-width="4" fill="#dfcc74"/>
  </g>
  <path stroke="#75485e" id="svg_77" d="m193.478901,166.702508l-13.68247,0c1.51133,0 2.7365,-2.33982 2.7365,-5.22614c0,-2.88632 -1.22517,-5.22614 -2.7365,-5.22614l13.68247,0l0,0c1.51133,0 2.7365,2.33982 2.7365,5.22614c0,2.88632 -1.22517,5.22614 -2.7365,5.22614z" stroke-width="4" fill="#75485e"/>
  <path stroke="#75485e" id="svg_81" d="m199.888381,166.714748l-13.68247,0c1.51132,0 2.73649,-2.33982 2.73649,-5.22614c0,-2.88632 -1.22517,-5.22614 -2.73649,-5.22614l13.68247,0l0,0c1.51132,0 2.73649,2.33982 2.73649,5.22614c0,2.88632 -1.22517,5.22614 -2.73649,5.22614z" stroke-width="4" fill="#75485e"/>
  <text stroke="#d7cdcc" transform="matrix(0.2078148590177577,0,0,0.2078148590177577,168.51274038315785,129.1338897061862) " id="svg_78" xml:space="preserve" text-anchor="start" font-family="Calibri, Arial, sans-serif" font-size="14" y="145.213083" x="71.1484" stroke-width="0" fill="#d7cdcc">Iterate over</text>
  <text stroke="#d7cdcc" transform="matrix(0.2078148590177577,0,0,0.2078148590177577,168.51274038315785,129.1338897061862) " id="svg_79" xml:space="preserve" text-anchor="start" font-family="Calibri, Arial, sans-serif" font-size="14" y="160.522053" x="71.1484" stroke-width="0" fill="#d7cdcc">collection of</text>
  <text stroke="#d7cdcc" transform="matrix(0.2078148590177577,0,0,0.2078148590177577,168.51274038315785,129.1338897061862) " id="svg_80" xml:space="preserve" text-anchor="start" font-family="Calibri, Arial, sans-serif" font-size="14" y="175.063833" x="71.1484" stroke-width="0" fill="#d7cdcc">InputFormatters</text>
  <path stroke="#75485e" id="svg_84" d="m219.313121,166.656708l-13.68247,0c1.51133,0 2.7365,-2.33982 2.7365,-5.22614c0,-2.88632 -1.22517,-5.22614 -2.7365,-5.22614l13.68247,0l0,0c1.51133,0 2.7365,2.33982 2.7365,5.22614c0,2.88632 -1.22517,5.22614 -2.7365,5.22614z" stroke-width="4" fill="#75485e"/>
  <path stroke="#75485e" id="svg_85" d="m230.014711,166.668948l-13.68247,0c1.51133,0 2.7365,-2.33982 2.7365,-5.22614c0,-2.88632 -1.22517,-5.22614 -2.7365,-5.22614l13.68247,0l0,0c1.51133,0 2.7365,2.33982 2.7365,5.22614c0,2.88632 -1.22517,5.22614 -2.7365,5.22614z" stroke-width="4" fill="#75485e"/>
  <text stroke="#d7cdcc" id="svg_86" transform="matrix(0.2078148590177577,0,0,0.2078148590177577,168.51274038315785,129.1338897061862) " xml:space="preserve" text-anchor="start" font-family="Calibri, Arial, sans-serif" font-size="14" y="144.992694" x="195.462032" stroke-width="0" fill="#d7cdcc">Select the first that</text>
  <text stroke="#d7cdcc" id="svg_87" transform="matrix(0.2078148590177577,0,0,0.2078148590177577,168.51274038315785,129.1338897061862) " xml:space="preserve" text-anchor="start" font-family="Calibri, Arial, sans-serif" font-size="14" y="160.301664" x="195.462032" stroke-width="0" fill="#d7cdcc">returns true for</text>
  <text stroke="#d7cdcc" id="svg_88" transform="matrix(0.2078148590177577,0,0,0.2078148590177577,168.51274038315785,129.1338897061862) " xml:space="preserve" text-anchor="start" font-family="Calibri, Arial, sans-serif" font-size="14" y="174.843444" x="195.462032" stroke-width="0" fill="#d7cdcc">CanReadType(Type)</text>
  <path stroke="#75485e" id="svg_89" d="m250.188681,166.656708l-13.68247,0c1.51133,0 2.73649,-2.33982 2.73649,-5.22614c0,-2.88632 -1.22516,-5.22614 -2.73649,-5.22614l13.68247,0l0,0c1.51132,0 2.73649,2.33982 2.73649,5.22614c0,2.88632 -1.22516,5.22614 -2.73649,5.22614z" stroke-width="4" fill="#75485e"/>
  <path stroke="#75485e" id="svg_90" d="m306.857471,166.668948l-13.68247,0c1.51132,0 2.73649,-2.33982 2.73649,-5.22614c0,-2.88632 -1.22517,-5.22614 -2.73649,-5.22614l13.68247,0l0,0c1.51132,0 2.73649,2.33982 2.73649,5.22614c0,2.88632 -1.22517,5.22614 -2.73649,5.22614z" stroke-width="4" fill="#75485e"/>
  <rect stroke="#75485e" id="svg_94" height="14.343494" width="55.660007" y="154.218417" x="245.011943" stroke-linecap="null" stroke-linejoin="null" stroke-dasharray="null" stroke-width="0" fill="#75485e"/>
  <text stroke="#d7cdcc" id="svg_91" transform="matrix(0.2078148590177577,0,0,0.2078148590177577,168.51274038315785,129.1338897061862) " xml:space="preserve" text-anchor="start" font-family="Calibri, Arial, sans-serif" font-size="14" y="144.32645" x="344.034452" stroke-width="0" fill="#d7cdcc">Call method</text>
  <text stroke="#d7cdcc" id="svg_92" transform="matrix(0.2078148590177577,0,0,0.2078148590177577,168.51274038315785,129.1338897061862) " xml:space="preserve" text-anchor="start" font-family="Calibri, Arial, sans-serif" font-size="14" y="160.301664" x="344.034452" stroke-width="0" fill="#d7cdcc">ReadRequestBodyAsync(InputFormatterContext, Encoding)</text>
  <text stroke="#d7cdcc" id="svg_93" transform="matrix(0.2078148590177577,0,0,0.2078148590177577,168.51274038315785,129.1338897061862) " xml:space="preserve" text-anchor="start" font-family="Calibri, Arial, sans-serif" font-size="14" y="174.843444" x="344.034452" stroke-width="0" fill="#d7cdcc">To get InputFormatterResult, which contains the Model</text>
  <line fill="none" stroke-width="4" stroke-dasharray="null" stroke-linejoin="null" stroke-linecap="null" x1="268.244155" y1="142.730475" x2="180.204119" y2="156.256843" id="svg_18" stroke="#75485e"/>
  <line fill="none" stroke-width="4" stroke-dasharray="null" stroke-linejoin="null" stroke-linecap="null" x1="307.162128" y1="156.494147" x2="267.294941" y2="142.730475" id="svg_19" stroke="#75485e"/>
  <path stroke="#75485e" id="svg_76" fill="#000000" stroke-width="0" d="m75.466477,1.595726c-10.981231,0 -20.406884,6.302833 -25.020573,15.401862c-1.842681,-1.138587 -3.875158,-1.827996 -6.044292,-1.827996c-6.559524,0 -12.017987,5.840309 -13.705082,13.768334c-2.879653,-1.259748 -6.227898,-2.022463 -9.804409,-2.022463c-10.729525,0 -19.433106,6.497352 -19.433106,14.50732c0,7.230348 7.138087,13.174367 16.41096,14.27395c-0.4156,0.78043 -0.737963,1.553275 -0.737963,2.372505c0,7.669116 18.98402,13.923908 42.380339,13.923908c23.396318,0 42.380364,-6.254801 42.380339,-13.923908c0,-0.516001 -0.289368,-0.976494 -0.456833,-1.477954c1.024765,0.282051 2.039424,0.583403 3.162719,0.583403c6.258871,0.000026 11.350621,-4.706834 11.350621,-10.501278c0,-5.794444 -5.09175,-10.501269 -11.350621,-10.501269c-0.767007,0 -1.419205,0.293229 -2.143619,0.427837c0.633424,-2.316912 1.054231,-4.681013 1.054231,-7.19532c0,-15.338214 -12.544513,-27.808923 -28.042702,-27.808923l-0.000009,-0.000009z">Startup Magic</path>
  <text transform="matrix(0.8608287572860718,0,0,0.8533024787902832,16.830340495047494,11.187832643285219) " stroke="#75485e" id="svg_82" fill="#ffffff" stroke-width="0" x="11.07619" y="38.946166" font-size="14" font-family="Calibri, Arial, sans-serif" text-anchor="start" xml:space="preserve">Startup Magic</text>
 </g>
</svg>