<?xml version="1.0"?>
<svg width="799.9999999999999" height="80" xmlns="http://www.w3.org/2000/svg" xmlns:svg="http://www.w3.org/2000/svg">
 <!-- Created with Method Draw - http://github.com/duopixel/Method-Draw/ -->
 <title>MVC Pipeline</title>
 <g>
  <title>Input Formatter Choice</title>
  <g id="svg_21">
   <g stroke="null" id="svg_50">
    <title stroke="null" transform="translate(0.75,0) translate(0.75,0) translate(0.75,0) translate(0.75,0) translate(0.75,0) translate(0.75,0) translate(0.75,0) translate(0.75,0) translate(0,0.75) translate(0,0.75) translate(0,0.75) translate(0,0.75) translate(-5.947793006896973,-16.99842643737793) translate(-15.1875,-97.875) translate(281.890869140625,131.26307678222656) scale(1.9269825220108032) translate(-281.890869140625,-131.26307678222656) translate(3.086583137512207,2.983123302459717) scale(2.4172756671905518,7.899053573608398) translate(-3.086583137512207,-2.983123302459717) translate(1.2768852710723877,0.3776558041572571) scale(1.1597408056259155,0.40742602944374084) translate(-1.2768852710723877,-0.3776558041572571) translate(1.1010090112686157,0.9269310235977173) scale(1.0792572498321533) translate(-1.1010090112686157,-0.9269310235977173) ">Pipeline</title>
    <rect stroke="#dfcc74" fill="#dfcc74" stroke-width="4" stroke-opacity="null" x="22.355147" y="5.295299" width="757.847976" height="69.878637" id="svg_52"/>
    <ellipse stroke="#dfcc74" fill="#d7cdcc" stroke-width="4" stroke-opacity="null" cx="19.348707" cy="40.234615" rx="13.348708" ry="34.440064" id="svg_53"/>
    <ellipse stroke="#dfcc74" fill="#dfcc74" stroke-width="4" stroke-opacity="null" cx="781.594351" cy="40.234615" rx="13.348708" ry="34.440064" id="svg_54"/>
   </g>
   <path stroke="#75485e" fill="#75485e" stroke-width="4" d="m105.148224,75.307129l-79.772715,0c8.811486,0 15.954578,-15.660623 15.954578,-34.979019c0,-19.318396 -7.143092,-34.979019 -15.954578,-34.979019l79.772715,0l0,0c8.811486,0 15.954578,15.660623 15.954578,34.979019c0,19.318396 -7.143092,34.979019 -15.954578,34.979019z" id="svg_77"/>
   <path stroke="#75485e" fill="#75485e" stroke-width="4" d="m150.392327,75.389052l-79.772715,0c8.811428,0 15.95452,-15.660623 15.95452,-34.979019c0,-19.318396 -7.143092,-34.979019 -15.95452,-34.979019l79.772715,0l0,0c8.811428,0 15.95452,15.660623 15.95452,34.979019c0,19.318396 -7.143092,34.979019 -15.95452,34.979019z" id="svg_81"/>
   <text stroke="#d7cdcc" fill="#d7cdcc" stroke-width="0" x="-67.779499" y="-32.111121" font-size="14" font-family="Calibri, Arial, sans-serif" text-anchor="start" xml:space="preserve" id="svg_78" transform="matrix(1.2116200896258185,0,0,1.3909232865750174,127.91619919344505,70.50139871031651) ">Iterate over</text>
   <text stroke="#d7cdcc" fill="#d7cdcc" stroke-width="0" x="-67.779499" y="-16.802151" font-size="14" font-family="Calibri, Arial, sans-serif" text-anchor="start" xml:space="preserve" id="svg_79" transform="matrix(1.2116200896258185,0,0,1.3909232865750174,127.91619919344505,70.50139871031651) ">collection of</text>
   <text stroke="#d7cdcc" fill="#d7cdcc" stroke-width="0" x="-67.779499" y="-2.260371" font-size="14" font-family="Calibri, Arial, sans-serif" text-anchor="start" xml:space="preserve" id="svg_80" transform="matrix(1.2116200896258185,0,0,1.3909232865750174,127.91619919344505,70.50139871031651) ">InputFormatters</text>
   <path stroke="#75485e" fill="#75485e" stroke-width="4" d="m255.769119,75.000586l-79.772715,0c8.811486,0 15.954578,-15.660623 15.954578,-34.979019c0,-19.318396 -7.143092,-34.979019 -15.954578,-34.979019l79.772715,0l0,0c8.811486,0 15.954578,15.660623 15.954578,34.979019c0,19.318396 -7.143092,34.979019 -15.954578,34.979019z" id="svg_84"/>
   <path stroke="#75485e" fill="#75485e" stroke-width="4" d="m323.78745,75.082509l-79.772715,0c8.811486,0 15.954578,-15.660623 15.954578,-34.979019c0,-19.318396 -7.143092,-34.979019 -15.954578,-34.979019l79.772715,0l0,0c8.811486,0 15.954578,15.660623 15.954578,34.979019c0,19.318396 -7.143092,34.979019 -15.954578,34.979019z" id="svg_85"/>
   <text stroke="#d7cdcc" fill="#d7cdcc" stroke-width="0" x="56.534133" y="-32.33151" font-size="14" font-family="Calibri, Arial, sans-serif" text-anchor="start" xml:space="preserve" transform="matrix(1.2116200896258185,0,0,1.3909232865750174,127.91619919344505,70.50139871031651) " id="svg_86">Select the first that</text>
   <text stroke="#d7cdcc" fill="#d7cdcc" stroke-width="0" x="56.534133" y="-17.02254" font-size="14" font-family="Calibri, Arial, sans-serif" text-anchor="start" xml:space="preserve" transform="matrix(1.2116200896258185,0,0,1.3909232865750174,127.91619919344505,70.50139871031651) " id="svg_87">returns true for</text>
   <text stroke="#d7cdcc" fill="#d7cdcc" stroke-width="0" x="56.534133" y="-2.48076" font-size="14" font-family="Calibri, Arial, sans-serif" text-anchor="start" xml:space="preserve" transform="matrix(1.2116200896258185,0,0,1.3909232865750174,127.91619919344505,70.50139871031651) " id="svg_88">CanReadType(Type)</text>
   <path stroke="#75485e" fill="#75485e" stroke-width="4" d="m435.782468,75.000586l-79.772715,0c8.811486,0 15.95452,-15.660623 15.95452,-34.979019c0,-19.318396 -7.143033,-34.979019 -15.95452,-34.979019l79.772715,0l0,0c8.811428,0 15.95452,15.660623 15.95452,34.979019c0,19.318396 -7.143033,34.979019 -15.95452,34.979019z" id="svg_89"/>
   <path stroke="#75485e" fill="#75485e" stroke-width="4" d="m766.177728,75.082509l-79.772715,0c8.811428,0 15.95452,-15.660623 15.95452,-34.979019c0,-19.318396 -7.143092,-34.979019 -15.95452,-34.979019l79.772715,0l0,0c8.811428,0 15.95452,15.660623 15.95452,34.979019c0,19.318396 -7.143092,34.979019 -15.95452,34.979019z" id="svg_90"/>
   <rect stroke="#75485e" fill="#75485e" stroke-width="0" stroke-dasharray="null" stroke-linejoin="null" stroke-linecap="null" x="405.600604" y="3.749999" width="324.513767" height="73.502281" id="svg_94"/>
   <text stroke="#d7cdcc" fill="#d7cdcc" stroke-width="0" x="205.106553" y="-32.997754" font-size="14" font-family="Calibri, Arial, sans-serif" text-anchor="start" xml:space="preserve" transform="matrix(1.2116200896258185,0,0,1.3909232865750174,127.91619919344505,70.50139871031651) " id="svg_91">Call method</text>
   <text stroke="#d7cdcc" fill="#d7cdcc" stroke-width="0" x="205.106553" y="-17.02254" font-size="14" font-family="Calibri, Arial, sans-serif" text-anchor="start" xml:space="preserve" transform="matrix(1.2116200896258185,0,0,1.3909232865750174,127.91619919344505,70.50139871031651) " id="svg_92">ReadRequestBodyAsync(InputFormatterContext, Encoding)</text>
   <text stroke="#d7cdcc" fill="#d7cdcc" stroke-width="0" x="205.106553" y="-2.48076" font-size="14" font-family="Calibri, Arial, sans-serif" text-anchor="start" xml:space="preserve" transform="matrix(1.2116200896258185,0,0,1.3909232865750174,127.91619919344505,70.50139871031651) " id="svg_93">To get InputFormatterResult, which contains the Model</text>
  </g>
 </g>
</svg>