<svg xmlns="http://www.w3.org/2000/svg" width="683" height="683" viewBox="0 0 683 683">
<g>
<path d="M 548.80 670.72 C541.19,672.27 524.03,672.42 343.00,672.58 C234.38,672.67 141.68,672.39 137.00,671.96 C114.60,669.86 93.59,662.82 74.00,650.83 C39.45,629.69 14.48,593.40 6.34,552.50 C4.66,544.06 4.52,531.08 4.22,345.50 C4.00,205.42 4.23,144.57 5.01,137.50 C12.35,71.22 61.28,19.08 126.55,8.00 C138.32,6.00 141.48,5.97 341.00,6.23 L 543.50 6.50 L 554.00 8.86 C593.31,17.70 624.78,39.19 646.46,72.00 C657.59,88.84 663.62,103.27 668.19,124.00 L 670.50 134.50 L 670.50 338.50 C670.50,353.45 670.50,367.35 670.50,380.28 C670.53,535.40 670.53,550.19 666.25,563.61 C665.44,566.15 664.47,568.63 663.33,572.00 C647.35,619.11 610.21,654.37 562.80,667.45 C559.66,668.32 553.36,669.79 548.80,670.72 ZM 148.66 501.78 L 153.14 508.05 L 157.95 505.43 C164.29,501.98 169.43,496.55 183.46,478.50 C189.87,470.25 200.05,457.14 206.08,449.37 C215.15,437.67 217.80,434.91 221.46,433.33 C225.03,431.78 227.83,428.94 236.15,418.46 C257.19,391.93 268.86,377.12 279.48,363.50 C294.47,344.28 299.34,338.70 303.55,335.90 C305.70,334.47 311.79,327.04 318.63,317.50 C327.27,305.43 331.50,300.47 335.80,297.29 C343.27,291.78 345.58,291.82 354.03,297.59 C366.83,306.33 369.04,309.41 393.49,352.50 C405.98,374.50 417.28,394.18 418.61,396.24 C420.39,399.01 423.15,401.06 429.19,404.10 C438.89,408.97 444.56,414.15 461.95,434.00 C475.09,449.00 501.96,481.01 510.21,491.51 C514.61,497.09 522.71,504.22 527.62,506.81 C530.19,508.17 530.43,507.92 538.35,495.87 C545.24,485.39 554.61,467.05 559.41,454.65 C586.03,385.92 579.68,310.99 541.86,247.72 C521.45,213.57 487.27,181.29 451.61,162.45 C418.52,144.98 386.93,136.59 349.50,135.32 C283.28,133.08 222.77,157.00 175.94,203.92 C145.61,234.29 125.18,269.99 114.63,311.00 C105.98,344.64 105.20,383.29 112.47,417.88 C118.51,446.58 132.61,479.25 148.66,501.78 ZM 337.62 504.88 L 338.25 508.00 L 379.14 508.00 L 378.44 502.35 L 377.73 496.69 L 381.12 497.29 C402.89,501.12 414.68,503.01 420.18,503.58 C426.41,504.22 426.82,504.13 427.49,502.04 C428.56,498.67 427.37,494.08 420.91,476.58 C415.12,460.93 414.55,458.00 417.25,458.00 C420.09,458.00 440.03,484.01 449.53,500.11 L 453.43 506.71 L 466.87 507.36 C485.10,508.23 506.24,508.17 505.83,507.24 C504.87,505.06 458.81,450.20 445.18,435.00 C433.90,422.42 431.91,420.62 425.78,417.44 C419.61,414.25 419.00,414.34 419.00,418.50 C419.00,420.42 418.66,421.99 418.25,421.98 C417.84,421.96 411.90,411.95 405.05,399.73 C398.21,387.50 388.95,371.20 384.49,363.50 C380.02,355.80 372.60,342.83 367.99,334.68 C361.47,323.14 358.30,318.65 353.75,314.43 C350.52,311.44 347.57,309.00 347.19,309.01 C346.81,309.02 345.79,310.70 344.92,312.76 C344.05,314.82 338.24,328.30 332.01,342.73 L 320.68 368.96 L 323.34 371.05 C324.80,372.20 326.00,373.95 326.00,374.93 C326.00,375.92 320.60,389.15 314.00,404.33 C307.40,419.52 302.00,432.35 302.00,432.85 C302.00,433.34 309.54,433.98 318.75,434.27 C333.14,434.73 336.63,435.17 343.50,437.40 C347.90,438.82 352.11,440.39 352.86,440.87 C353.96,441.58 353.22,444.23 349.12,454.30 C338.84,479.57 335.50,494.26 337.62,504.88 ZM 244.65 491.17 C245.57,492.18 246.64,493.00 247.04,493.00 C247.44,493.00 249.73,489.96 252.13,486.25 C254.53,482.54 260.33,475.61 265.00,470.84 C271.74,463.96 274.58,461.79 278.70,460.36 C283.91,458.56 283.91,458.56 287.55,449.87 L 291.20 441.18 L 288.96 438.16 C285.62,433.65 286.59,429.95 296.50,409.21 C301.31,399.15 304.93,390.60 304.54,390.21 C303.43,389.10 288.89,404.77 283.35,413.04 C280.61,417.14 273.59,428.38 267.77,438.01 C259.80,451.21 257.30,456.14 257.66,458.01 C258.01,459.84 256.14,463.82 250.57,473.10 C246.40,480.04 243.00,486.53 243.00,487.53 C243.00,488.52 243.74,490.17 244.65,491.17 ZM 337.68 191.37 C333.22,194.69 329.00,197.31 329.00,196.77 C329.00,196.52 329.90,193.70 331.00,190.50 C332.10,187.30 333.00,184.14 333.00,183.47 C333.00,182.79 330.52,180.54 327.50,178.46 C322.24,174.83 320.58,172.73 323.25,173.07 C323.94,173.16 327.25,173.18 330.61,173.12 L 336.72 173.00 L 338.93 166.00 C340.15,162.15 341.31,159.00 341.53,159.00 C341.74,159.00 342.85,162.15 344.00,166.00 L 346.08 173.00 L 353.54 173.00 C357.64,173.00 361.00,173.38 361.00,173.83 C361.00,174.29 358.52,176.37 355.50,178.46 C352.48,180.54 350.00,182.79 350.00,183.47 C350.00,184.14 350.90,187.31 352.00,190.51 C353.10,193.71 353.81,196.52 353.58,196.75 C353.35,196.99 350.66,195.34 347.62,193.09 C344.58,190.84 341.81,189.00 341.48,189.00 C341.14,189.00 339.43,190.07 337.68,191.37 ZM 407.00 201.54 C407.00,205.64 406.66,208.99 406.25,208.99 C405.84,208.98 403.79,206.51 401.69,203.49 C399.59,200.47 397.30,198.00 396.60,198.00 C395.89,198.00 392.69,198.90 389.49,200.00 C386.29,201.10 383.52,201.85 383.33,201.67 C383.15,201.48 384.80,198.82 387.00,195.74 C389.20,192.67 391.00,189.82 391.00,189.42 C391.00,189.01 389.16,186.24 386.91,183.26 C384.66,180.28 383.01,177.66 383.25,177.42 C383.48,177.19 386.33,177.88 389.59,178.97 C392.84,180.06 396.05,180.96 396.71,180.98 C397.38,180.99 399.85,178.19 402.21,174.75 L 406.50 168.50 L 407.08 184.83 L 414.04 186.94 C417.87,188.11 421.00,189.25 421.00,189.49 C421.00,189.72 417.85,190.85 414.00,192.00 L 407.00 194.08 ZM 281.87 202.96 C276.80,210.43 276.00,210.23 276.00,201.50 L 276.00 194.06 L 269.00 191.93 C265.15,190.76 262.00,189.64 262.00,189.43 C262.00,189.23 265.15,188.10 269.00,186.93 L 276.00 184.81 L 276.00 177.40 C276.00,173.33 276.38,170.00 276.83,170.00 C277.29,170.00 279.37,172.48 281.46,175.50 C283.54,178.52 285.79,181.00 286.47,181.00 C287.14,181.00 290.34,180.13 293.57,179.06 C296.81,177.99 299.58,177.24 299.73,177.39 C299.88,177.55 298.20,180.18 296.00,183.26 C293.80,186.33 292.00,189.18 292.00,189.58 C292.00,189.99 293.84,192.76 296.09,195.74 C298.34,198.72 299.99,201.34 299.75,201.58 C299.52,201.81 296.71,201.10 293.51,200.00 C290.31,198.90 287.14,198.00 286.47,198.00 C285.80,198.00 283.73,200.23 281.87,202.96 ZM 196.20 269.05 C196.03,272.60 195.54,275.86 195.10,276.30 C194.67,276.73 192.45,274.63 190.19,271.63 L 186.07 266.18 L 181.28 267.70 L 180.72 267.88 C175.67,269.48 173.31,270.23 172.89,269.62 C172.51,269.09 173.62,267.51 175.71,264.53 L 175.97 264.16 L 180.28 258.01 L 177.39 253.95 C177.14,253.60 176.89,253.26 176.66,252.93 C172.94,247.70 172.02,246.41 172.28,246.10 C172.36,245.99 172.57,246.00 172.86,246.00 C172.91,246.00 172.97,246.00 173.03,246.00 C173.72,246.00 176.97,246.97 180.24,248.17 C183.84,249.48 186.44,249.95 186.84,249.37 C192.18,241.58 194.30,238.97 194.85,239.51 C195.21,239.87 195.73,243.16 196.00,246.83 L 196.50 253.50 L 202.75 255.43 C206.19,256.48 209.00,257.63 209.00,257.98 C209.00,258.33 206.19,259.51 202.75,260.61 L 196.50 262.61 ZM 150.88 383.06 C148.59,386.33 146.55,389.00 146.36,389.00 C146.16,389.00 146.00,385.68 146.00,381.62 C146.00,381.35 146.00,381.09 146.00,380.84 C146.01,377.57 146.01,375.79 145.18,374.58 C144.12,373.05 141.71,372.45 136.24,370.89 C133.90,370.22 132.25,369.41 132.56,369.09 C132.88,368.77 135.92,367.56 139.32,366.42 L 145.50 364.34 L 145.79 356.54 L 146.09 348.74 L 150.68 354.93 C153.21,358.33 155.78,360.92 156.39,360.70 C162.51,358.45 168.24,356.90 168.70,357.37 C169.02,357.69 167.40,360.43 165.11,363.47 L 160.94 369.00 L 164.78 374.25 C170.43,381.96 170.51,382.15 167.73,381.09 C166.41,380.59 163.02,379.49 160.19,378.65 L 155.04 377.12 ZM 233.14 230.00 C231.90,233.85 230.71,237.00 230.50,237.00 C230.29,237.00 229.10,233.85 227.86,230.00 L 225.61 223.00 L 209.78 223.00 L 215.89 218.50 C219.25,216.03 221.99,213.44 221.98,212.75 C221.96,212.06 221.06,208.84 219.98,205.59 C218.89,202.35 218.00,199.51 218.00,199.29 C218.00,199.08 220.86,200.94 224.35,203.43 L 230.70 207.96 L 236.59 203.56 C239.83,201.13 242.59,199.26 242.73,199.39 C242.86,199.53 241.99,202.71 240.79,206.46 L 238.62 213.27 L 241.11 215.39 C242.48,216.55 245.15,218.72 247.05,220.20 L 250.50 222.91 L 242.95 222.95 L 235.39 223.00 ZM 531.44 320.82 C532.78,324.77 533.76,328.00 533.60,328.00 C533.45,328.00 530.81,326.20 527.74,324.00 C524.67,321.80 521.62,320.00 520.96,320.00 C520.30,320.00 517.55,321.63 514.84,323.62 C512.12,325.61 509.66,326.99 509.35,326.69 C509.05,326.38 509.74,323.40 510.90,320.06 C512.05,316.72 513.00,313.82 513.00,313.61 C513.00,313.40 510.31,311.26 507.03,308.86 L 501.05 304.50 L 516.31 303.50 L 518.24 297.50 C519.30,294.20 520.49,291.16 520.88,290.75 C521.28,290.33 522.61,293.13 523.85,296.96 L 526.09 303.92 L 541.32 304.50 L 535.16 308.81 C531.77,311.19 529.00,313.25 529.00,313.39 C529.00,313.53 530.10,316.88 531.44,320.82 ZM 538.30 373.78 C537.59,374.24 536.97,377.59 536.80,381.91 L 536.50 389.26 L 532.61 383.60 C530.47,380.49 528.39,377.74 527.98,377.49 C527.58,377.24 524.03,378.13 520.10,379.47 C515.93,380.88 513.25,381.40 513.68,380.70 C514.09,380.04 516.11,377.09 518.17,374.15 L 521.91 368.79 L 518.14 363.65 C516.07,360.82 514.08,358.00 513.72,357.40 C513.36,356.79 516.30,357.35 520.25,358.65 C524.20,359.94 527.51,361.00 527.62,361.00 C527.72,361.00 529.85,358.24 532.36,354.87 L 536.91 348.74 L 537.21 356.58 L 537.50 364.42 L 543.48 366.24 C546.77,367.24 549.83,368.43 550.28,368.88 C550.74,369.34 548.50,370.45 545.30,371.36 C542.11,372.27 538.96,373.36 538.30,373.78 ZM 492.60 271.75 C490.53,274.64 488.66,277.00 488.46,277.00 C487.97,277.00 487.08,271.51 486.76,266.55 C486.50,262.64 486.44,262.58 480.25,260.61 C476.81,259.51 474.00,258.32 474.00,257.96 C474.00,257.59 477.02,256.40 480.72,255.30 L 487.44 253.29 L 487.81 246.40 C488.02,242.60 488.32,239.37 488.48,239.20 C488.70,238.97 492.10,243.41 496.62,249.85 C496.76,250.05 499.85,249.21 503.50,248.00 C507.15,246.79 510.31,245.98 510.53,246.20 C510.75,246.42 509.10,249.18 506.86,252.34 L 502.78 258.08 L 505.64 262.09 C506.04,262.66 506.42,263.18 506.76,263.66 C510.07,268.30 510.97,269.56 510.71,269.90 C510.61,270.02 510.34,270.01 509.98,270.01 C509.88,270.00 509.77,270.00 509.66,270.00 C508.79,270.00 505.55,269.06 502.47,267.90 C499.38,266.75 496.75,265.96 496.62,266.15 C496.49,266.34 494.68,268.86 492.60,271.75 ZM 523.86 441.00 C522.62,444.85 521.33,448.00 520.99,448.00 C520.65,448.00 519.50,444.96 518.43,441.25 L 516.49 434.50 L 508.62 434.21 L 500.74 433.91 L 506.93 429.32 C510.33,426.79 512.92,424.22 512.70,423.61 C510.52,417.68 508.89,411.77 509.32,411.35 C509.61,411.06 512.35,412.71 515.40,415.01 L 520.95 419.20 L 525.73 415.76 C528.35,413.87 531.13,411.95 531.90,411.51 C533.42,410.63 533.31,411.30 530.57,420.20 L 529.13 424.90 L 535.25 429.45 L 541.38 434.00 L 526.12 434.00 ZM 164.58 440.68 C163.44,444.08 162.25,447.11 161.94,447.41 C161.63,447.71 160.37,444.81 159.13,440.98 L 156.88 434.00 L 141.62 434.00 L 147.75 429.45 L 153.87 424.90 L 152.43 420.20 C151.63,417.61 150.69,414.42 150.34,413.10 C149.61,410.34 149.91,410.45 157.21,415.72 L 161.93 419.12 L 167.49 414.92 C170.55,412.61 173.31,410.98 173.63,411.30 C174.10,411.76 172.55,417.49 170.30,423.61 C170.08,424.22 172.67,426.79 176.07,429.32 L 182.26 433.91 L 166.66 434.50 ZM 455.13 230.04 C453.89,233.87 452.71,237.00 452.50,237.00 C452.29,237.00 451.10,233.85 449.86,230.00 L 447.61 223.00 L 440.05 222.95 L 432.50 222.91 L 435.95 220.20 C437.85,218.72 440.48,216.59 441.79,215.47 L 444.18 213.44 L 442.46 207.47 C441.51,204.19 440.49,200.86 440.19,200.08 C439.89,199.29 442.59,200.75 446.18,203.31 L 452.70 207.96 L 458.59 203.56 C461.83,201.13 464.60,199.27 464.74,199.41 C464.89,199.55 464.12,202.33 463.03,205.59 C461.94,208.84 461.06,212.18 461.06,213.00 C461.07,213.82 463.65,216.30 466.79,218.50 L 472.50 222.50 L 457.37 223.08 ZM 156.75 322.78 C153.86,324.90 150.96,326.95 150.30,327.34 C149.60,327.76 150.12,325.07 151.55,320.85 C152.90,316.89 154.00,313.58 154.00,313.50 C154.00,313.41 151.25,311.36 147.89,308.92 L 141.77 304.50 L 156.91 303.92 L 159.15 296.98 C160.37,293.17 161.63,290.29 161.94,290.59 C162.25,290.89 163.44,293.92 164.58,297.32 L 166.66 303.50 L 174.30 304.00 L 181.95 304.50 L 175.97 308.86 C172.69,311.26 170.00,313.33 170.00,313.45 C170.00,313.57 170.93,316.49 172.06,319.94 C173.19,323.39 173.88,326.45 173.59,326.75 C173.29,327.04 170.57,325.40 167.53,323.11 L 162.00 318.94 Z" fill="rgb(1,100,253)"/>
<path d="M 0.00 341.50 L 0.00 0.00 L 341.50 0.00 L 683.00 0.00 L 683.00 341.50 L 683.00 683.00 L 341.50 683.00 L 0.00 683.00 L 0.00 341.50 ZM 548.80 670.72 C553.36,669.79 559.66,668.32 562.80,667.45 C610.21,654.37 647.35,619.11 663.33,572.00 C671.04,549.29 670.50,566.80 670.50,338.50 L 670.50 134.50 L 668.19 124.00 C663.62,103.27 657.59,88.84 646.46,72.00 C624.78,39.19 593.31,17.70 554.00,8.86 L 543.50 6.50 L 341.00 6.23 C141.48,5.97 138.32,6.00 126.55,8.00 C61.28,19.08 12.35,71.22 5.01,137.50 C4.23,144.57 4.00,205.42 4.22,345.50 C4.52,531.08 4.66,544.06 6.34,552.50 C14.48,593.40 39.45,629.69 74.00,650.83 C93.59,662.82 114.60,669.86 137.00,671.96 C141.68,672.39 234.38,672.67 343.00,672.58 C524.03,672.42 541.19,672.27 548.80,670.72 ZM 148.66 501.78 C132.61,479.25 118.51,446.58 112.47,417.88 C105.20,383.29 105.98,344.64 114.63,311.00 C125.18,269.99 145.61,234.29 175.94,203.92 C222.77,157.00 283.28,133.08 349.50,135.32 C386.93,136.59 418.52,144.98 451.61,162.45 C487.27,181.29 521.45,213.57 541.86,247.72 C579.68,310.99 586.03,385.92 559.41,454.65 C554.61,467.05 545.24,485.39 538.35,495.87 C530.43,507.92 530.19,508.17 527.62,506.81 C522.71,504.22 514.61,497.09 510.21,491.51 C501.96,481.01 475.09,449.00 461.95,434.00 C444.56,414.15 438.89,408.97 429.19,404.10 C423.15,401.06 420.39,399.01 418.61,396.24 C417.28,394.18 405.98,374.50 393.49,352.50 C369.04,309.41 366.83,306.33 354.03,297.59 C345.58,291.82 343.27,291.78 335.80,297.29 C331.50,300.47 327.27,305.43 318.63,317.50 C311.79,327.04 305.70,334.47 303.55,335.90 C299.34,338.70 294.47,344.28 279.48,363.50 C268.86,377.12 257.19,391.93 236.15,418.46 C227.83,428.94 225.03,431.78 221.46,433.33 C217.80,434.91 215.15,437.67 206.08,449.37 C200.05,457.14 189.87,470.25 183.46,478.50 C169.43,496.55 164.29,501.98 157.95,505.43 L 153.14 508.05 L 148.66 501.78 ZM 164.58 440.68 L 166.66 434.50 L 174.46 434.21 L 182.26 433.91 L 176.07 429.32 C172.67,426.79 170.08,424.22 170.30,423.61 C172.55,417.49 174.10,411.76 173.63,411.30 C173.31,410.98 170.55,412.61 167.49,414.92 L 161.93 419.12 L 157.21 415.72 C149.91,410.45 149.61,410.34 150.34,413.10 C150.69,414.42 151.63,417.61 152.43,420.20 L 153.87 424.90 L 147.75 429.45 L 141.62 434.00 L 149.25 434.00 L 156.88 434.00 L 159.13 440.98 C160.37,444.81 161.63,447.71 161.94,447.41 C162.25,447.11 163.44,444.08 164.58,440.68 ZM 523.86 441.00 L 526.12 434.00 L 533.75 434.00 L 541.38 434.00 L 535.25 429.45 L 529.13 424.90 L 530.57 420.20 C533.31,411.30 533.42,410.63 531.90,411.51 C531.13,411.95 528.35,413.87 525.73,415.76 L 520.95 419.20 L 515.40 415.01 C512.35,412.71 509.61,411.06 509.32,411.35 C508.89,411.77 510.52,417.68 512.70,423.61 C512.92,424.22 510.33,426.79 506.93,429.32 L 500.74 433.91 L 508.62 434.21 L 516.49 434.50 L 518.43 441.25 C519.50,444.96 520.65,448.00 520.99,448.00 C521.33,448.00 522.62,444.85 523.86,441.00 ZM 150.88 383.06 L 155.04 377.12 L 160.19 378.65 C163.02,379.49 166.41,380.59 167.73,381.09 C170.51,382.15 170.43,381.96 164.78,374.25 L 160.94 369.00 L 165.11 363.47 C167.40,360.43 169.02,357.69 168.70,357.37 C168.24,356.90 162.51,358.45 156.39,360.70 C155.78,360.92 153.21,358.33 150.68,354.93 L 146.09 348.74 L 145.79 356.54 L 145.50 364.34 L 139.32 366.42 C135.92,367.56 132.88,368.77 132.56,369.09 C132.25,369.41 133.90,370.22 136.24,370.89 C146.34,373.76 146.00,373.39 146.00,381.62 C146.00,385.68 146.16,389.00 146.36,389.00 C146.55,389.00 148.59,386.33 150.88,383.06 ZM 538.30 373.78 C538.96,373.36 542.11,372.27 545.30,371.36 C548.50,370.45 550.74,369.34 550.28,368.88 C549.83,368.43 546.77,367.24 543.48,366.24 L 537.50 364.42 L 537.21 356.58 L 536.91 348.74 L 532.36 354.87 C529.85,358.24 527.72,361.00 527.62,361.00 C527.51,361.00 524.20,359.94 520.25,358.65 C516.30,357.35 513.36,356.79 513.72,357.40 C514.08,358.00 516.07,360.82 518.14,363.65 L 521.91 368.79 L 518.17 374.15 C516.11,377.09 514.09,380.04 513.68,380.70 C513.25,381.40 515.93,380.88 520.10,379.47 C524.03,378.13 527.58,377.24 527.98,377.49 C528.39,377.74 530.47,380.49 532.61,383.60 L 536.50 389.26 L 536.80 381.91 C536.97,377.59 537.59,374.24 538.30,373.78 ZM 156.75 322.78 L 162.00 318.94 L 167.53 323.11 C170.57,325.40 173.29,327.04 173.59,326.75 C173.88,326.45 173.19,323.39 172.06,319.94 C170.93,316.49 170.00,313.57 170.00,313.45 C170.00,313.33 172.69,311.26 175.97,308.86 L 181.95 304.50 L 174.30 304.00 L 166.66 303.50 L 164.58 297.32 C163.44,293.92 162.25,290.89 161.94,290.59 C161.63,290.29 160.37,293.17 159.15,296.98 L 156.91 303.92 L 149.34 304.21 L 141.77 304.50 L 147.89 308.92 C151.25,311.36 154.00,313.41 154.00,313.50 C154.00,313.58 152.90,316.89 151.55,320.85 C150.12,325.07 149.60,327.76 150.30,327.34 C150.96,326.95 153.86,324.90 156.75,322.78 ZM 531.44 320.82 C530.10,316.88 529.00,313.53 529.00,313.39 C529.00,313.25 531.77,311.19 535.16,308.81 L 541.32 304.50 L 533.70 304.21 L 526.09 303.92 L 523.85 296.96 C522.61,293.13 521.28,290.33 520.88,290.75 C520.49,291.16 519.30,294.20 518.24,297.50 L 516.31 303.50 L 508.68 304.00 L 501.05 304.50 L 507.03 308.86 C510.31,311.26 513.00,313.40 513.00,313.61 C513.00,313.82 512.05,316.72 510.90,320.06 C509.74,323.40 509.05,326.38 509.35,326.69 C509.66,326.99 512.12,325.61 514.84,323.62 C517.55,321.63 520.30,320.00 520.96,320.00 C521.62,320.00 524.67,321.80 527.74,324.00 C530.81,326.20 533.45,328.00 533.60,328.00 C533.76,328.00 532.78,324.77 531.44,320.82 ZM 196.20 269.05 L 196.50 262.61 L 202.75 260.61 C206.19,259.51 209.00,258.33 209.00,257.98 C209.00,257.63 206.19,256.48 202.75,255.43 L 196.50 253.50 L 196.00 246.83 C195.73,243.16 195.21,239.87 194.85,239.51 C194.30,238.97 192.18,241.58 186.84,249.37 C186.44,249.95 183.84,249.48 180.24,248.17 C176.97,246.97 173.72,246.00 173.03,246.00 C171.67,246.00 171.46,245.63 177.39,253.95 L 180.28 258.01 L 175.97 264.16 C171.16,271.02 171.05,270.95 181.28,267.70 L 186.07 266.18 L 190.19 271.63 C192.45,274.63 194.67,276.73 195.10,276.30 C195.54,275.86 196.03,272.60 196.20,269.05 ZM 492.60 271.75 C494.68,268.86 496.49,266.34 496.62,266.15 C496.75,265.96 499.38,266.75 502.47,267.90 C505.55,269.06 508.79,270.00 509.66,270.00 C511.40,270.00 511.70,270.60 505.64,262.09 L 502.78 258.08 L 506.86 252.34 C509.10,249.18 510.75,246.42 510.53,246.20 C510.31,245.98 507.15,246.79 503.50,248.00 C499.85,249.21 496.76,250.05 496.62,249.85 C492.10,243.41 488.70,238.97 488.48,239.20 C488.32,239.37 488.02,242.60 487.81,246.40 L 487.44 253.29 L 480.72 255.30 C477.02,256.40 474.00,257.59 474.00,257.96 C474.00,258.32 476.81,259.51 480.25,260.61 C486.44,262.58 486.50,262.64 486.76,266.55 C487.08,271.51 487.97,277.00 488.46,277.00 C488.66,277.00 490.53,274.64 492.60,271.75 ZM 233.14 230.00 L 235.39 223.00 L 242.95 222.95 L 250.50 222.91 L 247.05 220.20 C245.15,218.72 242.48,216.55 241.11,215.39 L 238.62 213.27 L 240.79 206.46 C241.99,202.71 242.86,199.53 242.73,199.39 C242.59,199.26 239.83,201.13 236.59,203.56 L 230.70 207.96 L 224.35 203.43 C220.86,200.94 218.00,199.08 218.00,199.29 C218.00,199.51 218.89,202.35 219.98,205.59 C221.06,208.84 221.96,212.06 221.98,212.75 C221.99,213.44 219.25,216.03 215.89,218.50 L 209.78 223.00 L 217.69 223.00 L 225.61 223.00 L 227.86 230.00 C229.10,233.85 230.29,237.00 230.50,237.00 C230.71,237.00 231.90,233.85 233.14,230.00 ZM 455.13 230.04 L 457.37 223.08 L 464.93 222.79 L 472.50 222.50 L 466.79 218.50 C463.65,216.30 461.07,213.82 461.06,213.00 C461.06,212.18 461.94,208.84 463.03,205.59 C464.12,202.33 464.89,199.55 464.74,199.41 C464.60,199.27 461.83,201.13 458.59,203.56 L 452.70 207.96 L 446.18 203.31 C442.59,200.75 439.89,199.29 440.19,200.08 C440.49,200.86 441.51,204.19 442.46,207.47 L 444.18 213.44 L 441.79 215.47 C440.48,216.59 437.85,218.72 435.95,220.20 L 432.50 222.91 L 440.05 222.95 L 447.61 223.00 L 449.86 230.00 C451.10,233.85 452.29,237.00 452.50,237.00 C452.71,237.00 453.89,233.87 455.13,230.04 ZM 281.87 202.96 C283.73,200.23 285.80,198.00 286.47,198.00 C287.14,198.00 290.31,198.90 293.51,200.00 C296.71,201.10 299.52,201.81 299.75,201.58 C299.99,201.34 298.34,198.72 296.09,195.74 C293.84,192.76 292.00,189.99 292.00,189.58 C292.00,189.18 293.80,186.33 296.00,183.26 C298.20,180.18 299.88,177.55 299.73,177.39 C299.58,177.24 296.81,177.99 293.57,179.06 C290.34,180.13 287.14,181.00 286.47,181.00 C285.79,181.00 283.54,178.52 281.46,175.50 C279.37,172.48 277.29,170.00 276.83,170.00 C276.38,170.00 276.00,173.33 276.00,177.40 L 276.00 184.81 L 269.00 186.93 C265.15,188.10 262.00,189.23 262.00,189.43 C262.00,189.64 265.15,190.76 269.00,191.93 L 276.00 194.06 L 276.00 201.50 C276.00,210.23 276.80,210.43 281.87,202.96 ZM 407.00 201.54 L 407.00 194.08 L 414.00 192.00 C417.85,190.85 421.00,189.72 421.00,189.49 C421.00,189.25 417.87,188.11 414.04,186.94 L 407.08 184.83 L 406.79 176.66 L 406.50 168.50 L 402.21 174.75 C399.85,178.19 397.38,180.99 396.71,180.98 C396.05,180.96 392.84,180.06 389.59,178.97 C386.33,177.88 383.48,177.19 383.25,177.42 C383.01,177.66 384.66,180.28 386.91,183.26 C389.16,186.24 391.00,189.01 391.00,189.42 C391.00,189.82 389.20,192.67 387.00,195.74 C384.80,198.82 383.15,201.48 383.33,201.67 C383.52,201.85 386.29,201.10 389.49,200.00 C392.69,198.90 395.89,198.00 396.60,198.00 C397.30,198.00 399.59,200.47 401.69,203.49 C403.79,206.51 405.84,208.98 406.25,208.99 C406.66,208.99 407.00,205.64 407.00,201.54 ZM 337.68 191.37 C339.43,190.07 341.14,189.00 341.48,189.00 C341.81,189.00 344.58,190.84 347.62,193.09 C350.66,195.34 353.35,196.99 353.58,196.75 C353.81,196.52 353.10,193.71 352.00,190.51 C350.90,187.31 350.00,184.14 350.00,183.47 C350.00,182.79 352.48,180.54 355.50,178.46 C358.52,176.37 361.00,174.29 361.00,173.83 C361.00,173.38 357.64,173.00 353.54,173.00 L 346.08 173.00 L 344.00 166.00 C342.85,162.15 341.74,159.00 341.53,159.00 C341.31,159.00 340.15,162.15 338.93,166.00 L 336.72 173.00 L 330.61 173.12 C327.25,173.18 323.94,173.16 323.25,173.07 C320.58,172.73 322.24,174.83 327.50,178.46 C330.52,180.54 333.00,182.79 333.00,183.47 C333.00,184.14 332.10,187.30 331.00,190.50 C329.90,193.70 329.00,196.52 329.00,196.77 C329.00,197.31 333.22,194.69 337.68,191.37 ZM 337.62 504.88 C335.50,494.26 338.84,479.57 349.12,454.30 C353.22,444.23 353.96,441.58 352.86,440.87 C352.11,440.39 347.90,438.82 343.50,437.40 C336.63,435.17 333.14,434.73 318.75,434.27 C309.54,433.98 302.00,433.34 302.00,432.85 C302.00,432.35 307.40,419.52 314.00,404.33 C320.60,389.15 326.00,375.92 326.00,374.93 C326.00,373.95 324.80,372.20 323.34,371.05 L 320.68 368.96 L 332.01 342.73 C338.24,328.30 344.05,314.82 344.92,312.76 C345.79,310.70 346.81,309.02 347.19,309.01 C347.57,309.00 350.52,311.44 353.75,314.43 C358.30,318.65 361.47,323.14 367.99,334.68 C372.60,342.83 380.02,355.80 384.49,363.50 C388.95,371.20 398.21,387.50 405.05,399.73 C411.90,411.95 417.84,421.96 418.25,421.98 C418.66,421.99 419.00,420.42 419.00,418.50 C419.00,414.34 419.61,414.25 425.78,417.44 C431.91,420.62 433.90,422.42 445.18,435.00 C458.81,450.20 504.87,505.06 505.83,507.24 C506.24,508.17 485.10,508.23 466.87,507.36 L 453.43 506.71 L 449.53 500.11 C440.03,484.01 420.09,458.00 417.25,458.00 C414.55,458.00 415.12,460.93 420.91,476.58 C427.37,494.08 428.56,498.67 427.49,502.04 C426.82,504.13 426.41,504.22 420.18,503.58 C414.68,503.01 402.89,501.12 381.12,497.29 L 377.73 496.69 L 378.44 502.35 L 379.14 508.00 L 358.70 508.00 L 338.25 508.00 L 337.62 504.88 ZM 244.65 491.17 C243.74,490.17 243.00,488.52 243.00,487.53 C243.00,486.53 246.40,480.04 250.57,473.10 C256.14,463.82 258.01,459.84 257.66,458.01 C257.30,456.14 259.80,451.21 267.77,438.01 C273.59,428.38 280.61,417.14 283.35,413.04 C288.89,404.77 303.43,389.10 304.54,390.21 C304.93,390.60 301.31,399.15 296.50,409.21 C286.59,429.95 285.62,433.65 288.96,438.16 L 291.20 441.18 L 287.55 449.87 C283.91,458.56 283.91,458.56 278.70,460.36 C274.58,461.79 271.74,463.96 265.00,470.84 C260.33,475.61 254.53,482.54 252.13,486.25 C249.73,489.96 247.44,493.00 247.04,493.00 C246.64,493.00 245.57,492.18 244.65,491.17 Z" fill="rgb(252,253,254)"/>
</g>
</svg>